:SAMPLES-PER-SECOND 30
:FULLY-SPECIFIED
:DEGREES
504
root  -6.54017 40.4985 -3.29652 -10.688 -88.0624 6.21848
RightUpLeg  1.93569 -14.1491 -7.514
RightLeg  20.5368 0.436043 -0.0250664
RightFoot  -9.23408 -0.199697 7.32098
RightToes  0.00048216 0.542163 -0.142577
Spine  9.82355 0.88689 0.995806
Spine1  3.75972 1.59954 -3.00301
HEad  -6.30088 6.44629 -2.50806
LeftShoulder1  0.53022 -0.446693 -5.53762
LeftArm  -25.0409 18.6052 -9.53211
LeftForeArm  12.4661 -9.49843 0.708873
LeftHand  -0.25398 0.0180481 5.50724
RightShoulder  0.47282 -0.0830903 6.12625
RightArm  -21.5054 -7.59112 4.54642
RightForeArm  -29.2013 5.15482 4.51672
RightHand  -7.94449 18.749 -37.2984
LeftUpLeg  5.28239 7.03141 -0.53777
LeftLeg  8.74012 13.719 -3.19797
LeftFoot  -10.879 0.0642239 0.277156
LeftToes  1.06246e-005 4.65855e-005 -8.185e-006
505
root  -6.3156 40.5514 -3.20341 -21.0899 -88.6553 16.9029
RightUpLeg  3.99036 -15.6229 -7.64822
RightLeg  16.2549 -1.81516 -0.0459513
RightFoot  -10.5523 -0.105545 5.10983
RightToes  0.00048216 0.542163 -0.142577
Spine  9.07787 0.931824 0.871736
Spine1  3.58425 1.71588 -3.03382
HEad  -6.91859 4.44269 -2.33258
LeftShoulder1  0.473419 -0.226668 -4.71363
LeftArm  -24.8945 18.4845 -9.70801
LeftForeArm  11.2728 -8.71072 0.762979
LeftHand  -0.25398 0.0180481 5.50724
RightShoulder  0.437733 -0.176743 5.37346
RightArm  -21.5383 -7.176 4.19345
RightForeArm  -28.3706 4.86644 4.44936
RightHand  -8.03883 19.0776 -37.2359
LeftUpLeg  5.32704 6.4152 -1.04086
LeftLeg  7.24601 14.9235 -3.61076
LeftFoot  -10.2121 0.0544583 0.683218
LeftToes  1.06246e-005 4.65855e-005 -8.185e-006
506
root  -6.09742 40.6033 -3.12475 -49.1745 -89.1482 45.382
RightUpLeg  5.13825 -13.5273 -7.76495
RightLeg  12.4646 -6.71217 0.999557
RightFoot  -10.7965 -0.0893093 3.53541
RightToes  0.00048216 0.542163 -0.142577
Spine  8.36126 0.969614 0.775872
Spine1  3.37014 1.81565 -3.11288
HEad  -7.42036 2.40561 -2.12579
LeftShoulder1  0.42918 -0.0291092 -4.10137
LeftArm  -24.7412 18.3406 -9.90169
LeftForeArm  9.60298 -7.55881 0.874699
LeftHand  -0.25398 0.0180481 5.50724
RightShoulder  0.406647 -0.306208 4.87767
RightArm  -21.3321 -6.77527 3.93793
RightForeArm  -28.0153 4.70894 4.4995
RightHand  -8.06694 19.1577 -37.2427
LeftUpLeg  5.22176 5.79063 -1.49604
LeftLeg  5.77638 16.1785 -4.10577
LeftFoot  -9.49232 0.0370707 1.2386
LeftToes  1.06246e-005 4.65855e-005 -8.185e-006
507
root  -5.87042 40.642 -3.04644 -109.383 -89.2752 105.976
RightUpLeg  5.32199 -11.6526 -7.83391
RightLeg  10.1874 -9.15611 2.00676
RightFoot  -10.3856 -0.0993175 3.41175
RightToes  0.00048216 0.542163 -0.142577
Spine  7.80917 1.0549 0.855552
Spine1  3.169 1.96343 -3.30974
HEad  -7.96479 0.556511 -2.06459
LeftShoulder1  0.405189 0.116912 -3.88748
LeftArm  -24.323 18.201 -9.94354
LeftForeArm  7.88344 -6.28059 0.927684
LeftHand  -0.25398 0.0180481 5.50724
RightShoulder  0.384284 -0.440356 4.68259
RightArm  -20.8669 -6.29861 3.60114
RightForeArm  -28.2997 4.63249 4.67765
RightHand  -8.13197 19.1714 -37.4996
LeftUpLeg  4.91305 5.26254 -1.80221
LeftLeg  4.72155 17.5334 -4.57143
LeftFoot  -8.90196 0.0174237 1.70024
LeftToes  1.06246e-005 4.65855e-005 -8.185e-006
508
root  -5.62438 40.6768 -2.97272 -157.377 -88.6307 154.246
RightUpLeg  4.83893 -11.2818 -7.88995
RightLeg  9.4476 -8.61042 2.42599
RightFoot  -9.80222 -0.118465 3.86346
RightToes  0.00048216 0.542163 -0.142577
Spine  7.52197 1.1553 0.944411
Spine1  3.0603 2.07801 -3.41959
HEad  -8.65263 -0.95966 -2.13633
LeftShoulder1  0.384908 0.295988 -3.91776
LeftArm  -23.7616 18.2862 -10.1175
LeftForeArm  6.39142 -5.32922 0.868943
LeftHand  -0.25398 0.0180481 5.50724
RightShoulder  0.382253 -0.467062 4.73
RightArm  -20.4018 -5.77263 3.21157
RightForeArm  -28.7691 4.48545 4.86072
RightHand  -8.20962 19.2208 -37.7587
LeftUpLeg  4.50687 4.93399 -1.90575
LeftLeg  4.08495 18.7333 -4.91709
LeftFoot  -8.40364 0.00100776 1.94919
LeftToes  1.06246e-005 4.65855e-005 -8.185e-006
509
root  -5.36761 40.7091 -2.92195 -168.662 -88.0262 165.686
RightUpLeg  4.15412 -11.2807 -7.74979
RightLeg  9.34793 -7.85052 2.52278
RightFoot  -9.14846 -0.135175 3.83048
RightToes  0.00048216 0.542163 -0.142577
Spine  7.46387 1.15637 0.732432
Spine1  3.02249 1.98302 -3.10731
HEad  -9.32603 -2.22464 -2.17057
LeftShoulder1  0.36554 0.470014 -3.96354
LeftArm  -23.2908 18.6107 -10.5863
LeftForeArm  5.36301 -4.71516 0.781227
LeftHand  -0.25398 0.0180481 5.50724
RightShoulder  0.394128 -0.399026 4.85092
RightArm  -20.1947 -5.3789 2.94601
RightForeArm  -28.994 4.18307 4.92194
RightHand  -8.20107 19.197 -37.7562
LeftUpLeg  4.05887 4.76028 -1.87689
LeftLeg  3.75783 19.5173 -5.07572
LeftFoot  -7.92735 -0.0155086 2.1902
LeftToes  1.06246e-005 4.65855e-005 -8.185e-006
510
root  -5.12319 40.7348 -2.90334 -171.706 -87.9893 168.763
RightUpLeg  3.67822 -11.0975 -7.48577
RightLeg  9.23578 -8.15018 2.51703
RightFoot  -8.48582 -0.140398 3.32089
RightToes  0.00048216 0.542163 -0.142577
Spine  7.54639 0.997124 0.0784473
Spine1  2.97562 1.61206 -2.30492
HEad  -9.76018 -3.31825 -2.04632
LeftShoulder1  0.367786 0.462778 -4.01403
LeftArm  -22.8637 18.9075 -11.0604
LeftForeArm  4.79875 -4.04897 0.728552
LeftHand  -0.25398 0.0180481 5.50724
RightShoulder  0.399803 -0.368211 4.91485
RightArm  -20.2782 -5.27594 2.88669
RightForeArm  -29.0112 3.81494 4.84449
RightHand  -8.15972 19.1172 -37.6945
LeftUpLeg  3.69694 4.59857 -1.87577
LeftLeg  3.51193 19.8444 -5.09946
LeftFoot  -7.44315 -0.0419039 2.56797
LeftToes  1.06246e-005 4.65855e-005 -8.185e-006
511
root  -4.91054 40.7513 -2.906 -169.193 -88.4004 166.151
RightUpLeg  3.51367 -10.7829 -7.2912
RightLeg  9.0997 -9.00889 2.43557
RightFoot  -8.00445 -0.137673 2.85482
RightToes  0.00048216 0.542163 -0.142577
Spine  7.66917 0.729944 -0.798272
Spine1  2.94544 1.09863 -1.35754
HEad  -9.87972 -4.25635 -1.73171
LeftShoulder1  0.393919 0.282514 -4.17342
LeftArm  -22.4392 18.9192 -11.2836
LeftForeArm  4.4244 -3.26957 0.692743
LeftHand  -0.25398 0.0180481 5.50724
RightShoulder  0.387681 -0.453441 4.8673
RightArm  -20.489 -5.45577 3.05164
RightForeArm  -29.0072 3.4909 4.70248
RightHand  -8.20316 19.145 -37.8391
LeftUpLeg  3.53478 4.40645 -1.96267
LeftLeg  3.23576 19.8045 -5.09901
LeftFoot  -6.98569 -0.0696389 2.93891
LeftToes  1.06246e-005 4.65855e-005 -8.185e-006
512
root  -4.73308 40.7623 -2.91043 -162.656 -88.8362 159.447
RightUpLeg  3.50311 -10.5753 -7.22382
RightLeg  9.02675 -9.62355 2.33746
RightFoot  -7.73113 -0.134699 2.60601
RightToes  0.00048216 0.542163 -0.142577
Spine  7.69947 0.47574 -1.50643
Spine1  3.01818 0.665361 -0.689534
HEad  -9.70766 -5.1867 -1.24306
LeftShoulder1  0.419458 0.14594 -4.47585
LeftArm  -22.2679 18.6425 -11.3639
LeftForeArm  4.15087 -2.81505 0.668971
LeftHand  -0.25398 0.0180481 5.50724
RightShoulder  0.360258 -0.629327 4.66624
RightArm  -20.6293 -5.80291 3.49997
RightForeArm  -28.9494 3.15918 4.56825
RightHand  -8.26877 19.235 -37.9884
LeftUpLeg  3.51347 4.25617 -2.05009
LeftLeg  2.97825 19.5917 -5.14522
LeftFoot  -6.57775 -0.093051 3.18972
LeftToes  1.06246e-005 4.65855e-005 -8.185e-006
513
root  -4.58049 40.7747 -2.90578 -158.357 -89.0159 155.02
RightUpLeg  3.46672 -10.4876 -7.2085
RightLeg  8.91305 -9.87882 2.33542
RightFoot  -7.48939 -0.132178 2.41775
RightToes  0.00048216 0.542163 -0.142577
Spine  7.58215 0.336779 -1.87473
Spine1  3.14162 0.445056 -0.40626
HEad  -9.32914 -6.29505 -0.69237
LeftShoulder1  0.4324 0.131934 -4.84656
LeftArm  -22.4473 18.2999 -11.4651
LeftForeArm  4.29856 -2.9433 0.668433
LeftHand  -0.25398 0.0180481 5.50724
RightShoulder  0.328319 -0.829051 4.37507
RightArm  -20.6316 -6.20623 4.13903
RightForeArm  -28.7967 2.73782 4.46234
RightHand  -8.20577 19.1587 -37.8303
LeftUpLeg  3.50745 4.19094 -2.07625
LeftLeg  2.70945 19.493 -5.26024
LeftFoot  -6.1836 -0.117134 3.42665
LeftToes  1.06246e-005 4.65855e-005 -8.185e-006
514
root  -4.44118 40.7855 -2.8943 -160.656 -88.9676 157.263
RightUpLeg  3.32983 -10.4272 -7.17345
RightLeg  8.78028 -9.94524 2.39344
RightFoot  -7.24964 -0.128847 2.22691
RightToes  0.00048216 0.542163 -0.142577
Spine  7.42748 0.309608 -2.04122
Spine1  3.16819 0.390635 -0.315012
HEad  -8.97958 -7.45173 -0.24572
LeftShoulder1  0.439715 0.135093 -5.10158
LeftArm  -22.6084 18.102 -11.612
LeftForeArm  5.06356 -3.31437 0.645532
LeftHand  -0.25398 0.0180481 5.50724
RightShoulder  0.308751 -0.96526 4.24912
RightArm  -20.5867 -6.58579 4.6002
RightForeArm  -28.7659 2.35353 4.38363
RightHand  -8.04633 18.9076 -37.5096
LeftUpLeg  3.45886 4.17455 -2.08431
LeftLeg  2.4129 19.664 -5.39375
LeftFoot  -5.83495 -0.143285 3.71009
LeftToes  1.06246e-005 4.65855e-005 -8.185e-006
